# xmcd CD database file
#
# Track frame offsets:
#	150
#	24052
#	38261
#	62439
#	77346
#	90700
#	93319
#	112903
#	133996
#	153702
#	169644
#	191571
#
# Disc length: 2728 seconds
#
# Revision: 0
# Processed by: cddbd v1.5.2PL0 Copyright (c) Steve Scherf et al.
# Submitted via: CDex 1.70beta2
#
DISCID=810aa60c
DTITLE=Helen Sheppard - Oyster Love
DYEAR=2004
DGENRE=Jazz
TTITLE0=The Baraka
TTITLE1=Oyster Love
TTITLE2=When You're In Love
TTITLE3=Brown Lady
TTITLE4=The Key
TTITLE5=Three Wise Monkeys
TTITLE6=Catching Dynamite
TTITLE7=Only You
TTITLE8=Emily Louise
TTITLE9=Let The Day Slip By
TTITLE10=Stay
TTITLE11=Long Time No See
EXTD=YEAR: 2004
EXTT0=
EXTT1=
EXTT2=
EXTT3=
EXTT4=
EXTT5=
EXTT6=
EXTT7=
EXTT8=
EXTT9=
EXTT10=
EXTT11=
PLAYORDER=
